<svg width="96" height="86" viewBox="0 0 96 86" fill="none" xmlns="http://www.w3.org/2000/svg">
<mask id="mask0_65_5876" style="mask-type:luminance" maskUnits="userSpaceOnUse" x="0" y="0" width="96" height="86">
<path d="M95.1212 0H0V86H95.1212V0Z" fill="white"/>
</mask>
<g mask="url(#mask0_65_5876)">
<path d="M66.52 0.0214467C69.0771 0.324652 70.5693 3.19181 69.3118 5.30228C63.1832 11.4807 56.7166 17.4039 50.3825 23.4121C47.3198 26.3165 44.2612 29.2462 41.1868 32.1492C35.9063 37.1362 31.9458 42.4689 23.7117 42.8919C6.54557 43.7734 -1.63025 23.5305 11.6527 13.4968C19.6493 7.45663 30.4595 9.34635 36.8533 16.4717C40.0589 20.0436 35.2345 24.5226 31.4708 21.537C30.2715 20.585 29.4177 19.392 28.0481 18.5529C21.9631 14.832 13.7145 18.3016 12.7441 25.0559C11.4764 33.8848 22.4353 39.2108 29.3915 33.2943L63.4382 0.917765C63.9905 0.481574 64.7568 0.101238 65.4796 0.0214467C65.7274 -0.00648011 66.2752 -0.00780996 66.52 0.0214467Z" fill="#085C7B"/>
<path d="M74.9155 9.84408C81.605 9.38129 86.7866 13.5637 89.2009 19.1304C94.8078 32.0592 83.1846 45.3098 68.6703 42.5358C63.5005 41.5477 60.8763 39.0754 57.2758 35.7868C56.0896 34.7042 52.1148 31.2746 51.5333 30.1681C49.7164 26.712 54.1343 23.4099 57.3224 25.781C60.0049 28.0723 62.4806 30.8424 65.1705 33.0925C73.0212 39.6607 84.971 33.3492 82.7839 23.6187C81.962 19.9602 78.583 15.7127 74.0907 17.2354C71.3062 18.1782 68.972 22.6905 66.2895 22.9563C63.3126 23.2516 61.1415 20.7129 62.2241 18.0679C62.6335 17.0652 66.186 13.8163 67.2104 12.9626C69.3449 11.1819 72.0494 10.0422 74.9155 9.84408Z" fill="#085C7B"/>
<path d="M90.2021 66.0778V62.7705C90.2021 62.7213 89.9689 62.2239 89.9049 62.1521C89.4691 61.6653 88.2218 61.6653 87.6419 61.8289C87.269 62.7372 85.8701 69.3332 85.4825 69.5939C85.3863 69.6591 85.3295 69.6605 85.2201 69.6738C84.5718 69.7522 82.0248 69.7602 81.404 69.6644C81.1579 69.6271 80.8853 69.4197 80.9407 69.1591L83.2254 62.1614L83.2648 61.7491H81.3997C81.3035 61.7491 81.1213 61.4153 81.1009 61.2957C81.0179 60.7996 81.0296 59.124 81.0937 58.604C81.1316 58.3021 81.2729 58.1013 81.5905 58.0109C84.3926 58.108 87.3782 57.8208 90.1598 57.9936C96.9441 58.4165 94.6565 64.6761 95.0659 69.0606L94.8021 69.6285H88.0353C87.8575 69.5048 87.7978 69.3399 87.7731 69.1404C87.7322 68.816 87.7352 66.5805 87.8196 66.405C87.8401 66.3637 88.1402 66.0765 88.165 66.0765H90.2035L90.2021 66.0778Z" fill="#085C7B"/>
<path d="M37.9196 58.3485C38.5811 57.7501 41.558 57.9562 42.4251 58.2581C44.2668 58.8977 44.6515 60.7063 44.7477 62.3593C45.0668 67.8316 43.0078 70.2812 36.9813 69.8331C30.283 69.3343 32.0359 63.0203 31.8158 58.6052C31.8303 58.2913 32.0563 58.048 32.3869 57.9988C32.7439 57.9469 35.6859 57.9549 35.8928 58.0361C36.0253 58.0878 36.2643 58.3632 36.2469 58.5201C36.3751 60.5015 36.0619 62.6957 36.2397 64.6507C36.2862 65.1653 36.3956 65.4846 36.8764 65.765C37.8744 66.3489 39.8387 66.2332 39.977 64.8967C40.0383 64.3089 40.0383 62.5521 39.7614 62.0695C39.2557 61.1877 37.8671 62.459 37.6486 61.5269C37.5598 61.1479 37.5728 59.3579 37.6283 58.9297C37.6515 58.7435 37.7812 58.4736 37.9196 58.3485Z" fill="#085C7B"/>
<path d="M4.5782 57.9934C7.00428 57.8963 9.4799 58.1595 10.5188 60.5268C12.1785 64.3061 9.61249 68.2319 5.75117 69.5085C5.40583 69.6229 3.85984 70.0551 3.62816 69.958C3.58445 69.9394 3.38629 69.7585 3.36006 69.716C3.06719 69.2267 3.39503 66.918 3.29595 66.2171C3.8511 65.4498 4.8973 65.5575 5.48453 64.7663C6.00471 64.0655 6.2699 62.1279 5.1217 61.8526C3.7564 61.5241 1.92335 61.9271 0.540567 61.7542C0.203976 61.713 0.101979 61.5215 0.0655515 61.221C0.225833 59.4895 -0.141357 57.4388 0.0655515 55.746C0.101979 55.4454 0.203976 55.2551 0.540567 55.2126C1.18606 55.1329 3.46206 55.1316 4.1061 55.2126C4.24743 55.23 4.5782 55.4001 4.5782 55.5026V57.9934Z" fill="#085C7B"/>
<path d="M47.675 32.3778C51.1924 31.9776 53.4086 35.5802 51.2084 38.1534C50.5512 38.9221 47.5103 41.8636 46.7336 42.3517C43.104 44.6285 38.8464 40.3384 41.7503 37.0084C42.4133 36.2491 45.7778 33.0588 46.547 32.7051C46.8809 32.5521 47.3062 32.4204 47.675 32.3778Z" fill="#085C7B"/>
<path d="M69.0782 61.5868C68.9441 61.5509 68.7184 61.201 68.6921 61.0507C68.612 60.572 68.6338 59.1957 68.6835 58.6836C68.7139 58.3672 68.7824 58.1623 69.1161 58.0308L79.5286 58.0374C79.5811 58.0587 79.8098 58.2741 79.8317 58.3233C79.919 58.5228 79.9205 60.9205 79.8535 61.1998C79.7181 61.7689 78.9457 61.5335 78.5028 61.6013C77.5761 64.0111 78.3075 66.8077 78.0102 69.3437C77.8485 69.5472 77.6723 69.6442 77.4071 69.6735C76.5984 69.764 74.5802 69.752 73.7555 69.6762C73.5107 69.6536 73.3826 69.6376 73.2427 69.4249C73.2704 67.3956 73.0503 65.2012 73.1931 63.1772C73.2194 62.8075 73.3141 62.3448 73.3927 61.9777C73.4087 61.9045 73.6361 61.588 73.4132 61.588H69.0754L69.0782 61.5868Z" fill="#085C7B"/>
<path d="M50.0107 58.0111C50.7888 57.8503 53.5733 57.946 54.5073 57.9899C62.3 58.357 59.8448 63.7495 60.2746 69.0582C60.2455 69.3681 60.0532 69.63 59.7136 69.6726C59.0156 69.759 56.5866 69.759 55.8873 69.6726C55.6162 69.6394 55.4282 69.493 55.4108 69.2231C55.319 67.3228 55.5492 65.3041 55.4196 63.4183C55.3554 62.4834 55.2155 61.7348 54.0644 61.5912C53.2572 61.4914 50.2425 61.7481 49.8155 61.5073C49.7675 61.4794 49.6713 61.3851 49.6494 61.3371C49.5693 61.1655 49.5546 58.7492 49.5998 58.4368C49.6334 58.2 49.7572 58.0617 50.0137 58.0098L50.0107 58.0111Z" fill="#085C7B"/>
<path d="M62.59 58.011L66.734 57.9951L67.1945 58.378L67.2163 69.1431C67.212 69.3773 66.9964 69.5381 66.804 69.6525L62.5725 69.6671L62.1325 69.2655L62.0917 58.6041C62.099 58.3209 62.3015 58.0855 62.59 58.011Z" fill="#085C7B"/>
<path d="M25.3743 58.0109C26.6289 58.0973 28.2259 57.8366 29.4382 57.9896C29.6946 58.0216 29.7937 58.1426 29.9525 58.3222V64.442L29.6494 64.728H25.2285C24.9663 64.5498 24.9051 64.3729 24.876 64.0804C24.7055 62.3436 25.013 60.3674 24.8789 58.604C24.8862 58.3208 25.0858 58.0854 25.3743 58.0109Z" fill="#085C7B"/>
<path d="M62.2677 78.0799L61.9647 83.7145H59.3624C59.1656 83.5947 59.1904 82.6745 59.2705 82.5668L60.391 82.479L60.5339 82.2862C60.563 80.8806 60.4274 79.4657 60.7072 78.0812C60.6679 78.0439 60.0734 78.1224 59.8971 78.0679C59.5721 77.9655 59.5838 76.9561 59.8387 76.8152C60.0049 76.7221 63.2571 76.7407 63.703 76.7727C64.8075 76.8498 65.9717 77.2699 66.4147 78.3033C66.7673 79.1265 66.8285 82.4192 66.6974 83.3527C66.6683 83.5588 66.6259 83.672 66.3871 83.7145C66.1481 83.7571 65.118 83.7797 65.0013 83.5535C64.7755 82.2331 65.166 80.5654 64.9372 79.2861C64.8614 78.8579 64.57 78.4922 64.1693 78.2953C64.095 78.2594 63.6433 78.0839 63.6141 78.0839H62.2692L62.2677 78.0799Z" fill="#085C7B"/>
<path d="M14.424 55.2183H17.3732L17.583 55.6557C17.1896 57.2156 17.1765 59.0069 16.7874 60.5456C16.6797 60.9738 16.4756 61.3022 15.9904 61.3475C15.1962 61.4219 13.015 61.4419 12.25 61.3475C11.7706 61.2876 11.8275 60.995 11.9236 60.624C12.1801 59.6359 13.4157 56.7501 13.9301 55.818C14.067 55.5694 14.1909 55.399 14.4226 55.2208L14.424 55.2183Z" fill="#085C7B"/>
<path d="M20.3239 55.2183H23.2731L23.483 55.6557C23.0896 57.2156 23.0763 59.0069 22.6874 60.5456C22.5795 60.9738 22.3756 61.3022 21.8903 61.3475C21.0962 61.4219 18.9149 61.4419 18.1499 61.3475C17.6705 61.2876 17.7274 60.995 17.8236 60.624C18.0799 59.6359 19.3156 56.7501 19.83 55.818C19.9669 55.5694 20.0909 55.399 20.3224 55.2208L20.3239 55.2183Z" fill="#085C7B"/>
<path d="M11.278 82.4268C12.4918 82.0451 14.4283 82.8989 15.0635 81.4573C15.3419 80.8243 15.3522 79.525 15.0228 78.904C14.3627 77.6552 12.4015 78.4212 11.278 78.0595C11.1221 77.9132 11.1178 77.0449 11.2489 76.8866C11.329 76.7882 11.4383 76.7828 11.5563 76.7681C12.1261 76.6977 13.4695 76.7297 14.0655 76.7828C15.8242 76.9385 16.764 77.9531 16.8995 79.5862C17.0599 81.5185 16.5849 83.4387 14.2272 83.6901C13.6779 83.7486 11.9716 83.7992 11.4777 83.71C11.3873 83.694 11.3101 83.6688 11.2503 83.5984C11.1178 83.4387 11.125 82.5716 11.2795 82.4254L11.278 82.4268Z" fill="#085C7B"/>
<path d="M87.4466 78.0613C87.2921 77.9163 87.2848 77.048 87.4175 76.8884L87.6448 76.7768C90.2822 76.9788 93.8987 75.8045 94.19 79.3473C94.3737 81.5655 93.2226 83.1307 90.9611 83.7358C90.6464 83.8196 90.2049 84.0337 90.1175 83.5895C90.0825 83.4113 90.0869 82.7251 90.1597 82.5721C90.301 82.277 91.5862 81.9857 92.0612 81.3408C92.5362 80.6958 92.682 78.9284 91.968 78.4177C91.1272 77.818 87.8356 78.4284 87.4466 78.0613Z" fill="#085C7B"/>
<path d="M30.777 78.0798H27.4373C27.1212 78.0798 27.1953 76.9814 27.3076 76.7739H33.3371C33.6082 76.7739 33.6096 77.7273 33.5105 77.9176C33.3576 78.2128 32.7907 78 32.511 78.1197C32.3579 78.2074 32.2137 78.8538 32.1904 79.0427C32.0184 80.3963 32.3564 82.0507 32.17 83.3513C32.154 83.459 32.0592 83.7144 31.9484 83.7144H30.6474C30.5234 83.6426 30.5279 83.5521 30.5133 83.4324C30.385 82.3991 30.4142 79.9137 30.5133 78.8524C30.5409 78.5559 30.6225 78.3338 30.777 78.0798Z" fill="#085C7B"/>
<path d="M45.8406 76.7856C47.8878 76.8827 51.1969 76.1433 52.007 78.5516C52.2809 79.3668 52.3334 82.4574 52.2081 83.3498C52.1921 83.4642 52.1878 83.5612 52.0828 83.6396C51.9327 83.7513 50.582 83.8404 50.4873 83.4934C50.3415 82.1981 50.6227 80.6966 50.4698 79.4267C50.222 77.3601 47.2366 78.3162 45.7794 78.0436L45.7357 76.8494L45.8406 76.7856Z" fill="#085C7B"/>
<path d="M6.57304 79.5094C6.45065 78.5877 5.82701 78.1542 4.88427 78.0771C4.28685 78.0279 2.24108 78.2007 1.88846 78.0399C1.632 77.9228 1.58975 76.8909 1.94966 76.7898C3.59764 76.8829 6.38655 76.3203 7.56388 77.6781C7.75913 77.9042 8.22249 78.7606 8.22249 79.0186V83.5906L8.09281 83.713H6.70419L6.5745 83.5906C6.45211 82.3073 6.74062 80.7581 6.5745 79.508L6.57304 79.5094Z" fill="#085C7B"/>
<path d="M41.0146 79.5094C40.8922 78.5877 40.2685 78.1542 39.3258 78.0771C38.7283 78.0279 36.6826 78.2007 36.3299 78.0399C36.0735 77.9228 36.0313 76.8909 36.3911 76.7898C38.0391 76.8829 40.8281 76.3203 42.0054 77.6781C42.2007 77.9042 42.6639 78.7606 42.6639 79.0186V83.5906L42.5343 83.713H41.1457L41.016 83.5906C40.8936 82.3073 41.1821 80.7581 41.016 79.508L41.0146 79.5094Z" fill="#085C7B"/>
<path d="M78.8948 76.7869C79.1265 76.7137 81.0296 76.7442 81.3996 76.7709C82.612 76.8546 83.7441 77.2443 84.1696 78.4092C84.4669 79.2231 84.5193 82.444 84.3926 83.3509C84.3765 83.4653 84.3722 83.5623 84.2673 83.6408C84.1171 83.7526 82.7664 83.8416 82.6717 83.4946C82.5259 82.1993 82.8071 80.6979 82.6542 79.4278C82.5682 78.7071 82.0393 78.2098 81.2889 78.1007C80.7906 78.0275 79.0843 78.1792 78.8366 78.0408C78.5888 77.9026 78.5714 76.8893 78.8948 76.7869Z" fill="#085C7B"/>
<path d="M23.2294 79.4266C22.9685 77.606 20.9126 78.2443 19.6244 78.0835C19.0052 78.0062 19.1552 76.8772 19.473 76.7894C19.7906 76.7018 21.6309 76.7416 22.0564 76.7749C22.8957 76.8388 23.8427 77.1379 24.3571 77.7949C24.5043 77.9824 24.8773 78.7443 24.8773 78.9372V83.5917L24.7476 83.7141H23.359L23.2294 83.5917V79.4266Z" fill="#085C7B"/>
<path d="M87.4261 86.0003C87.225 83.9111 87.3985 81.7741 87.3358 79.6689C87.3533 79.3431 87.5238 79.3271 87.8123 79.3006C88.2232 79.2633 89.0653 79.1769 89.0698 79.6782C88.9109 81.5307 89.3015 83.7448 89.0771 85.5535C89.0537 85.737 89.0129 85.8766 88.8584 86.0003H87.4261Z" fill="#085C7B"/>
<path d="M1.94957 79.3213C2.21186 79.2483 3.33674 79.219 3.43292 79.5248C3.34111 80.7071 3.61651 82.2071 3.45476 83.3494C3.43292 83.509 3.40377 83.6447 3.2158 83.6966C2.95352 83.7697 1.82864 83.7989 1.73247 83.493C1.82427 82.3108 1.54888 80.8107 1.71061 79.6684C1.73247 79.5088 1.76162 79.3732 1.94957 79.3213Z" fill="#085C7B"/>
<path d="M36.3895 79.3213C36.6518 79.2483 37.7767 79.219 37.8729 79.5248C37.7811 80.7071 38.0565 82.2071 37.8948 83.3494C37.8729 83.509 37.8438 83.6447 37.6558 83.6966C37.3934 83.7697 36.2686 83.7989 36.1725 83.493C36.2642 82.3108 35.9888 80.8107 36.1506 79.6684C36.1725 79.5088 36.2016 79.3732 36.3895 79.3213Z" fill="#085C7B"/>
<path d="M45.8288 79.3042H47.2159L47.3471 79.4266V83.5915L47.2159 83.7139H45.8288L45.6992 83.5915V79.4266L45.8288 79.3042Z" fill="#085C7B"/>
<path d="M69.686 76.7739H71.1606L71.2902 76.8963V80.7342L71.1606 80.8565H69.686L69.5549 80.7342V76.8963L69.686 76.7739Z" fill="#085C7B"/>
<path d="M74.3707 76.7739H75.8453L75.975 76.8963V80.7342L75.8453 80.8565H74.3707L74.2395 80.7342V76.8963L74.3707 76.7739Z" fill="#085C7B"/>
</g>
</svg>
