<svg width="69" height="70" viewBox="0 0 69 70" fill="none" xmlns="http://www.w3.org/2000/svg">
<path d="M41.5094 0C42.0447 1.66791e-05 42.5662 0.168019 42.9988 0.479813C43.4314 0.791606 43.7528 1.2311 43.9166 1.735L46.6981 10.28C47.8663 10.845 48.984 11.48 50.0511 12.195L58.9316 10.305C59.4552 10.1945 60.0008 10.2511 60.4897 10.4668C60.9787 10.6824 61.3858 11.046 61.6524 11.505L68.6617 23.5C68.9294 23.9588 69.0428 24.4898 68.9855 25.0163C68.9283 25.5429 68.7033 26.038 68.3431 26.43L62.2492 33.08C62.3379 34.3552 62.3379 35.6348 62.2492 36.91L68.3431 43.57C68.7033 43.962 68.9283 44.4571 68.9855 44.9837C69.0428 45.5102 68.9294 46.0412 68.6617 46.5L61.6524 58.5C61.3851 58.9581 60.9776 59.3206 60.4887 59.5354C59.9998 59.7501 59.4547 59.806 58.9316 59.695L50.0511 57.805C48.989 58.515 47.8663 59.155 46.7032 59.72L43.9166 68.265C43.7528 68.7689 43.4314 69.2084 42.9988 69.5202C42.5662 69.832 42.0447 70 41.5094 70H27.4906C26.9553 70 26.4338 69.832 26.0012 69.5202C25.5686 69.2084 25.2472 68.7689 25.0834 68.265L22.307 59.725C21.1419 59.1617 20.0181 58.5185 18.9439 57.8L10.0684 59.695C9.54481 59.8055 8.99924 59.7489 8.51028 59.5332C8.02132 59.3176 7.61422 58.954 7.34761 58.495L0.338258 46.5C0.0706 46.0412 -0.0427715 45.5102 0.0144903 44.9837C0.071752 44.4571 0.296688 43.962 0.656864 43.57L6.75085 36.91C6.66258 35.6382 6.66258 34.3618 6.75085 33.09L0.656864 26.43C0.296688 26.038 0.071752 25.5429 0.0144903 25.0163C-0.0427715 24.4898 0.0706 23.9588 0.338258 23.5L7.34761 11.5C7.61495 11.0419 8.02237 10.6794 8.51127 10.4646C9.00017 10.2499 9.54535 10.194 10.0684 10.305L18.9439 12.2C20.016 11.485 21.1387 10.84 22.307 10.275L25.0885 1.735C25.2517 1.23272 25.5716 0.794393 26.0021 0.48275C26.4327 0.171107 26.952 0.00212834 27.4856 0H41.5043H41.5094ZM39.6584 5H29.3416L26.4691 13.835L24.5322 14.77C23.58 15.2307 22.6608 15.7552 21.781 16.34L19.9907 17.54L10.8068 15.58L5.64837 24.42L11.9447 31.31L11.7929 33.43C11.7203 34.4754 11.7203 35.5246 11.7929 36.57L11.9447 38.69L5.63826 45.58L10.8017 54.42L19.9857 52.465L21.776 53.66C22.6557 54.2448 23.5749 54.7693 24.5271 55.23L26.464 56.165L29.3416 65H39.6685L42.5511 56.16L44.483 55.23C45.4342 54.7704 46.3518 54.2458 47.2291 53.66L49.0143 52.465L58.2033 54.42L63.3617 45.58L57.0604 38.69L57.2121 36.57C57.285 35.5229 57.285 34.4721 57.2121 33.425L57.0604 31.305L63.3668 24.42L58.2033 15.58L49.0143 17.53L47.2291 16.34C46.3518 15.7541 45.4343 15.2295 44.483 14.77L42.5511 13.84L39.6635 5H39.6584ZM34.5 20C38.5238 20 42.3828 21.5804 45.2281 24.3934C48.0733 27.2064 49.6718 31.0218 49.6718 35C49.6718 38.9782 48.0733 42.7936 45.2281 45.6066C42.3828 48.4196 38.5238 50 34.5 50C30.4762 50 26.6172 48.4196 23.7719 45.6066C20.9267 42.7936 19.3282 38.9782 19.3282 35C19.3282 31.0218 20.9267 27.2064 23.7719 24.3934C26.6172 21.5804 30.4762 20 34.5 20ZM34.5 25C31.8175 25 29.2448 26.0536 27.348 27.9289C25.4511 29.8043 24.3855 32.3478 24.3855 35C24.3855 37.6522 25.4511 40.1957 27.348 42.0711C29.2448 43.9464 31.8175 45 34.5 45C37.1825 45 39.7552 43.9464 41.652 42.0711C43.5489 40.1957 44.6145 37.6522 44.6145 35C44.6145 32.3478 43.5489 29.8043 41.652 27.9289C39.7552 26.0536 37.1825 25 34.5 25Z" fill="black"/>
</svg>
